Coordinates
version=1
nRows=24
nColumns=24
inDegrees=yes

Units are S.I. units (second, meters, Newtons, ...)
Angles are in degrees.

endheader
time	pelvis_tilt	pelvis_list	pelvis_rotation	pelvis_tx	pelvis_ty	pelvis_tz	hip_flexion_r	hip_adduction_r	hip_rotation_r	knee_angle_r	ankle_angle_r	subtalar_angle_r	mtp_angle_r	hip_flexion_l	hip_adduction_l	hip_rotation_l	knee_angle_l	ankle_angle_l	subtalar_angle_l	mtp_angle_l	lumbar_extension	lumbar_bending	lumbar_rotation
      0.69016667	      1.99517775	      5.08707141	     -0.85437944	     -0.45216308	      1.02505521	      0.27394389	      8.04880983	     -1.18619721	     -1.09817299	    -17.34488464	      3.98023382	     -8.81637838	     12.41678164	     12.12691477	      3.75707688	     -8.10294821	    -63.12844829	     -2.70282183	    -15.94086246	      4.82397068	     -6.43948571	     -5.58409873	      4.32882370
      0.69433333	      1.97914781	      5.19954053	     -1.02474866	     -0.44701968	      1.02576703	      0.27421777	      7.61913311	     -1.30679606	     -1.02982247	    -17.05093067	      4.05106788	     -8.68150603	     12.42172731	     12.65346070	      3.83856842	     -8.25905452	    -62.74070196	     -2.43097196	    -16.07246757	      4.77040619	     -6.44095946	     -5.68673789	      4.46713331
      0.69850000	      1.93943043	      5.33769559	     -1.21413261	     -0.44186183	      1.02640136	      0.27450373	      7.23476644	     -1.46187249	     -0.98434899	    -16.79372128	      4.22670819	     -8.43643804	     12.43653594	     13.18713909	      3.94614939	     -8.42816428	    -62.27099581	     -2.25414453	    -16.17391667	      4.64169793	     -6.40735744	     -5.84540215	      4.90569828
      0.70266667	      1.94214299	      5.45527952	     -1.40023782	     -0.43671543	      1.02706461	      0.27476342	      6.79121176	     -1.59830005	     -0.93940637	    -16.50660925	      4.34310590	     -8.22948570	     12.45211639	     13.66006997	      4.03216296	     -8.58746428	    -61.74203774	     -2.02548794	    -16.20485372	      4.53202055	     -6.43114371	     -5.97009579	      5.18479234
      0.70683333	      1.91273554	      5.56922607	     -1.59562484	     -0.43154650	      1.02763987	      0.27501609	      6.38767235	     -1.73284375	     -0.89259823	    -16.22739655	      4.43242925	     -8.04252726	     12.46438852	     14.14931646	      4.11059270	     -8.75703159	    -61.14595019	     -1.79805124	    -16.19590256	      4.47169726	     -6.39579762	     -6.08047220	      5.39985563
      0.71100000	      1.89379072	      5.66344974	     -1.77837066	     -0.42640009	      1.02816959	      0.27523414	      5.96744165	     -1.85158359	     -0.86425338	    -15.93830748	      4.58744603	     -7.79378961	     12.48692812	     14.62122362	      4.17249623	     -8.89873867	    -60.51056383	     -1.58156564	    -16.12956208	      4.38821388	     -6.39880595	     -6.17853900	      5.76385579
      0.71516667	      1.86021526	      5.77022096	     -1.98152941	     -0.42122975	      1.02865269	      0.27545880	      5.57011272	     -1.98456268	     -0.81404516	    -15.65537994	      4.65875235	     -7.60720396	     12.49982577	     15.08221970	      4.24583737	     -9.05851113	    -59.79271074	     -1.36887536	    -16.04194735	      4.35461764	     -6.36749489	     -6.28124401	      5.94707022
      0.71933333	      1.84608714	      5.85702472	     -2.17144615	     -0.41605836	      1.02911480	      0.27565413	      5.14580127	     -2.10259096	     -0.80010831	    -15.36794048	      4.83318267	     -7.33411916	     12.52717577	     15.51024563	      4.29873365	     -9.19896073	    -59.02948311	     -1.16301467	    -15.89164277	      4.30124323	     -6.36416920	     -6.36622673	      6.33891412
      0.72350000	      1.83201553	      5.93888293	     -2.37168902	     -0.41088446	      1.02953322	      0.27585222	      4.72236884	     -2.21542715	     -0.76723098	    -15.07696227	      4.95125731	     -7.11171982	     12.55216602	     15.91862570	      4.34481220	     -9.34442046	    -58.20522138	     -0.96478129	    -15.71703772	      4.26634868	     -6.35662106	     -6.44407502	      6.61662816
      0.72766667	      1.81141092	      6.00981933	     -2.56726920	     -0.40570570	      1.02987969	      0.27602953	      4.30620442	     -2.31948320	     -0.74496439	    -14.78776306	      5.07357625	     -6.87831728	     12.57853150	     16.31907358	      4.37957772	     -9.48035983	    -57.33422722	     -0.76456717	    -15.50585200	      4.24480902	     -6.34388814	     -6.50499518	      6.90139677
      0.73183333	      1.78896795	      6.07406720	     -2.76322209	     -0.40051701	      1.03019460	      0.27618636	      3.89013796	     -2.41915694	     -0.71948062	    -14.49411061	      5.19026504	     -6.65464513	     12.60473260	     16.70077786	      4.40952067	     -9.61067735	    -56.40328034	     -0.58112060	    -15.27656259	      4.23547618	     -6.32556076	     -6.56052489	      7.17836070
      0.73600000	      1.78224382	      6.13691113	     -2.95973187	     -0.39532825	      1.03047903	      0.27634371	      3.45785261	     -2.51983869	     -0.70081929	    -14.20174029	      5.31189077	     -6.42373480	     12.63163475	     17.04678723	      4.43939979	     -9.73487161	    -55.41793682	     -0.40809113	    -15.02494571	      4.23679821	     -6.32842565	     -6.61209573	      7.45495231
      0.74016667	      1.78116470	      6.17948644	     -3.15058761	     -0.39012955	      1.03073261	      0.27647758	      3.01153955	     -2.60054248	     -0.67815634	    -13.89634476	      5.42201127	     -6.20922244	     12.65886979	     17.36757636	      4.45032925	     -9.84654357	    -54.38479449	     -0.24418959	    -14.75340937	      4.24883900	     -6.33801711	     -6.63802848	      7.72939559
      0.74433333	      1.73612571	      6.22799049	     -3.34196379	     -0.38492923	      1.03086697	      0.27660766	      2.62372722	     -2.68573203	     -0.64635969	    -13.61013830	      5.49463603	     -6.02757346	     12.67584389	     17.71788139	      4.46681607	     -9.95417277	    -53.29838134	     -0.11202137	    -14.48107013	      4.26278944	     -6.29373779	     -6.67099883	      7.91923785
      0.74850000	      1.74002093	      6.25707124	     -3.52793860	     -0.37972045	      1.03103037	      0.27672164	      2.17127256	     -2.75570644	     -0.62596090	    -13.30446227	      5.60253764	     -5.82476430	     12.69486008	     17.99332312	      4.46487594	    -10.05582680	    -52.16541911	      0.02718727	    -14.16676771	      4.28391220	     -6.30807845	     -6.68499034	      8.18037039
      0.75266667	      1.73200422	      6.25928558	     -3.70217042	     -0.37450544	      1.03110923	      0.27681866	      1.72584760	     -2.79586490	     -0.60675201	    -12.99581337	      5.75441312	     -5.61745509	     12.72157249	     18.26870713	      4.43567432	    -10.13965088	    -51.00578647	      0.17114821	    -13.86256889	      4.32149157	     -6.31514733	     -6.66421129	      8.51285143
      0.75683333	      1.67570567	      6.28002655	     -3.87586121	     -0.36928435	      1.03108366	      0.27690001	      1.34654426	     -2.85457727	     -0.57547199	    -12.70954887	      5.82211188	     -5.46279584	     12.73695544	     18.57208536	      4.43080659	    -10.21361190	    -49.77936639	      0.24896511	    -13.57880782	      4.34845106	     -6.25718426	     -6.66454343	      8.69335612
      0.76100000	      1.66948418	      6.29190414	     -4.04663277	     -0.36405285	      1.03109286	      0.27697597	      0.90326615	     -2.90886344	     -0.55243727	    -12.40695203	      5.92598940	     -5.28998472	     12.75298801	     18.79701633	      4.42065887	    -10.28382214	    -48.50205878	      0.32653853	    -13.27865811	      4.38071132	     -6.26079367	     -6.65867595	      8.92866074
      0.76516667	      1.64694320	      6.27586723	     -4.19992910	     -0.35881890	      1.03101480	      0.27702628	      0.47176128	     -2.93131630	     -0.53181650	    -12.10127616	      6.02845660	     -5.13241637	     12.76779877	     19.02553234	      4.38448276	    -10.32968837	    -47.19957975	      0.39023351	    -12.99307821	      4.41599543	     -6.24855871	     -6.61870452	      9.16032236
      0.76933333	      1.62726137	      6.25470804	     -4.34615336	     -0.35357348	      1.03091030	      0.27706298	      0.03469475	     -2.94883641	     -0.51295457	    -11.79406755	      6.12799616	     -4.99054842	     12.78135941	     19.22753748	      4.34741323	    -10.36686319	    -45.84713701	      0.42950897	    -12.71866421	      4.45554403	     -6.24370092	     -6.57146588	      9.39198606
      0.77350000	      1.59193704	      6.23189146	     -4.48600169	     -0.34832264	      1.03074501	      0.27708931	     -0.38224939	     -2.96422420	     -0.48888476	    -11.49438040	      6.22595203	     -4.86449092	     12.79284671	     19.42357300	      4.31269352	    -10.38854207	    -44.44537866	      0.43598220	    -12.47227320	      4.49471203	     -6.21358140	     -6.52139309	      9.59990953
      0.77766667	      1.56956497	      6.19700901	     -4.61375166	     -0.34306387	      1.03054411	      0.27709589	     -0.81833003	     -2.96751993	     -0.47530830	    -11.19158122	      6.32154306	     -4.74489293	     12.80243742	     19.58562726	      4.27044547	    -10.40065892	    -43.00607320	      0.42165046	    -12.23749822	      4.53563435	     -6.20483158	     -6.45771305	      9.80541814
      0.78183333	      1.54879956	      6.14029793	     -4.72961591	     -0.33780265	      1.03030140	      0.27708051	     -1.26415187	     -2.94632850	     -0.45078889	    -10.87934135	      6.44246019	     -4.62685991	     12.81391395	     19.72695593	      4.21181305	    -10.39127893	    -41.53603890	      0.40096731	    -12.03416440	      4.60294691	     -6.21194393	     -6.36385570	     10.06572817
      0.78600000	      1.47864080	      6.09333901	     -4.82987866	     -0.33250451	      1.02995025	      0.27705105	     -1.64788331	     -2.93204976	     -0.44989312	    -10.59113830	      6.51059983	     -4.54695050	     12.81803242	     19.89775304	      4.16153222	    -10.38113262	    -40.01735439	      0.31971976	    -11.82876165	      4.63837048	     -6.13731317	     -6.28844548	     10.18393634
